<mxfile host="app.diagrams.net" modified="2020-09-02T11:48:08.878Z" agent="5.0 (Windows NT 10.0; Win64; x64) AppleWebKit/537.36 (KHTML, like Gecko) Chrome/81.0.4044.113 Safari/537.36" etag="xgF7BRs4VBBwYQ3PVC0a" version="13.1.4" type="github">
  <diagram name="Page-1" id="e56a1550-8fbb-45ad-956c-1786394a9013">
    <mxGraphModel dx="460" dy="752" grid="1" gridSize="10" guides="1" tooltips="1" connect="1" arrows="1" fold="1" page="1" pageScale="1" pageWidth="1100" pageHeight="850" background="#ffffff" math="0" shadow="0">
      <root>
        <mxCell id="0" />
        <mxCell id="1" parent="0" />
        <mxCell id="dKw2ImGrpEGFil1TIquo-2" value="抽象工厂类" style="swimlane;fontStyle=1;align=center;verticalAlign=top;childLayout=stackLayout;horizontal=1;startSize=30;horizontalStack=0;resizeParent=1;resizeParentMax=0;resizeLast=0;collapsible=1;marginBottom=0;direction=east;" vertex="1" parent="1">
          <mxGeometry x="125" y="75" width="225" height="130" as="geometry" />
        </mxCell>
        <mxCell id="dKw2ImGrpEGFil1TIquo-7" value="产品类" style="ellipse;whiteSpace=wrap;html=1;fillColor=none;strokeColor=#000000;" vertex="1" parent="dKw2ImGrpEGFil1TIquo-2">
          <mxGeometry y="30" width="225" height="40" as="geometry" />
        </mxCell>
        <mxCell id="dKw2ImGrpEGFil1TIquo-3" value="抽象工厂方法：" style="text;strokeColor=#000000;fillColor=none;align=left;verticalAlign=top;spacingLeft=4;spacingRight=4;overflow=hidden;rotatable=0;points=[[0,0.5],[1,0.5]];portConstraint=eastwest;" vertex="1" parent="dKw2ImGrpEGFil1TIquo-2">
          <mxGeometry y="70" width="225" height="26" as="geometry" />
        </mxCell>
        <mxCell id="dKw2ImGrpEGFil1TIquo-4" value="" style="line;strokeWidth=1;fillColor=none;align=left;verticalAlign=middle;spacingTop=-1;spacingLeft=3;spacingRight=3;rotatable=0;labelPosition=right;points=[];portConstraint=eastwest;" vertex="1" parent="dKw2ImGrpEGFil1TIquo-2">
          <mxGeometry y="96" width="225" height="8" as="geometry" />
        </mxCell>
        <mxCell id="dKw2ImGrpEGFil1TIquo-5" value="+ method(type): type" style="text;strokeColor=none;fillColor=none;align=left;verticalAlign=top;spacingLeft=4;spacingRight=4;overflow=hidden;rotatable=0;points=[[0,0.5],[1,0.5]];portConstraint=eastwest;" vertex="1" parent="dKw2ImGrpEGFil1TIquo-2">
          <mxGeometry y="104" width="225" height="26" as="geometry" />
        </mxCell>
      </root>
    </mxGraphModel>
  </diagram>
</mxfile>
